<?xml version="1.0" standalone="no"?>
<!DOCTYPE svg PUBLIC "-//W3C//DTD SVG 20010904//EN"
 "http://www.w3.org/TR/2001/REC-SVG-20010904/DTD/svg10.dtd">
<svg version="1.0" xmlns="http://www.w3.org/2000/svg"
 width="640.000000pt" height="640.000000pt" viewBox="0 0 640.000000 640.000000"
 preserveAspectRatio="xMidYMid meet">

<g transform="translate(0.000000,640.000000) scale(0.100000,-0.100000)"
fill="#000000" stroke="none">
<path d="M0 3200 l0 -3200 3200 0 3200 0 0 3200 0 3200 -3200 0 -3200 0 0
-3200z m2467 2680 c15 -6 161 -144 323 -306 l295 -294 285 285 c157 158 302
295 322 306 50 26 93 24 143 -6 65 -38 91 -111 65 -182 -6 -15 -129 -146 -272
-290 l-262 -262 759 -3 760 -3 100 -27 c284 -77 522 -278 632 -533 41 -94 60
-157 73 -235 14 -89 14 -2171 0 -2260 -53 -334 -311 -639 -629 -745 -176 -58
-110 -56 -1902 -53 l-1644 3 -100 27 c-320 87 -563 316 -671 631 -44 129 -45
163 -42 1317 l3 1095 28 90 c104 332 353 574 682 662 l100 27 644 4 645 3
-262 262 c-143 144 -266 275 -272 290 -44 121 76 241 197 197z"/>
<path d="M1505 4755 c-181 -49 -318 -163 -395 -327 -61 -130 -60 -105 -60
-1234 0 -987 1 -1034 19 -1106 51 -198 178 -344 366 -421 l80 -32 1685 0 1685
0 70 28 c157 63 268 165 335 309 61 130 60 105 60 1234 0 987 -1 1034 -19
1106 -39 150 -111 258 -231 345 -67 48 -159 90 -230 103 -34 6 -640 10 -1684
9 -1340 0 -1640 -3 -1681 -14z m1009 -1005 c90 -13 144 -38 205 -95 62 -58 92
-125 98 -225 9 -132 -23 -226 -102 -299 -88 -81 -178 -102 -402 -93 l-123 4 0
-146 c0 -201 -18 -238 -121 -252 -62 -8 -118 13 -146 55 l-23 34 0 459 c0 494
2 512 52 539 12 7 37 16 53 20 46 11 431 10 509 -1z m1114 -13 c66 -36 90
-120 56 -193 -29 -60 -85 -82 -216 -83 l-48 -1 0 -359 c0 -356 0 -358 -23
-392 -63 -95 -200 -88 -253 13 -11 22 -14 97 -14 387 l0 359 -99 4 c-113 3
-140 16 -174 81 -26 51 -16 108 28 156 l33 36 214 6 c347 9 458 6 496 -14z
m335 4 c41 -27 50 -43 131 -233 147 -344 205 -473 211 -473 3 0 31 59 61 130
138 328 231 532 255 559 23 26 35 30 93 34 64 4 67 3 101 -31 58 -58 53 -78
-84 -380 -66 -144 -151 -329 -190 -411 -39 -82 -71 -153 -71 -158 0 -21 -42
-88 -70 -112 -27 -22 -41 -26 -99 -26 -115 0 -114 -1 -268 335 -73 160 -141
310 -152 335 -23 52 -78 173 -109 242 -24 52 -29 134 -9 158 41 53 144 68 200
31z m-2183 -17 c61 -52 60 -40 60 -532 l0 -449 -23 -34 c-61 -92 -190 -90
-247 3 -19 32 -20 52 -20 481 0 497 0 499 64 538 48 29 126 26 166 -7z"/>
<path d="M2190 3388 l0 -141 118 7 c64 3 129 9 144 12 90 20 125 156 57 223
-35 35 -63 41 -205 41 l-114 0 0 -142z"/>
</g>
</svg>
